<mxfile host="app.diagrams.net" modified="2023-10-28T20:57:39.020Z" agent="Mozilla/5.0 (Windows NT 10.0; Win64; x64) AppleWebKit/537.36 (KHTML, like Gecko) Chrome/116.0.0.0 Safari/537.36 OPR/102.0.0.0" etag="FkP7W1w9ne4gw7SNLqi4" version="22.0.8" type="google">
  <diagram id="IJTGaafRvbzk6BhgAE6I" name="LineaBaseDesarrolloPropio">
    <mxGraphModel grid="1" page="1" gridSize="10" guides="1" tooltips="1" connect="1" arrows="1" fold="1" pageScale="1" pageWidth="827" pageHeight="1169" math="0" shadow="0">
      <root>
        <mxCell id="0" />
        <mxCell id="1" parent="0" />
        <mxCell id="1_6DS0vK1pRZlDQQTfkG-8" value="" style="html=1;dropTarget=0;whiteSpace=wrap;" vertex="1" parent="1">
          <mxGeometry x="33.5" y="-166.12" width="1047" height="322.25" as="geometry" />
        </mxCell>
        <mxCell id="1_6DS0vK1pRZlDQQTfkG-9" value="" style="shape=module;jettyWidth=8;jettyHeight=4;" vertex="1" parent="1_6DS0vK1pRZlDQQTfkG-8">
          <mxGeometry x="1" width="20" height="20" relative="1" as="geometry">
            <mxPoint x="-27" y="7" as="offset" />
          </mxGeometry>
        </mxCell>
        <mxCell id="1_6DS0vK1pRZlDQQTfkG-2" value="&amp;lt;&amp;lt;front end&amp;gt;&amp;gt;" style="text;html=1;align=center;verticalAlign=middle;resizable=0;points=[];autosize=1;strokeColor=none;fillColor=none;" vertex="1" parent="1">
          <mxGeometry x="507" y="-166.12" width="100" height="30" as="geometry" />
        </mxCell>
        <mxCell id="Uh_5a39o5ZOYxznqFw2u-1" value="" style="html=1;dropTarget=0;whiteSpace=wrap;" vertex="1" parent="1">
          <mxGeometry x="1525" y="-120" width="820" height="230" as="geometry" />
        </mxCell>
        <mxCell id="Uh_5a39o5ZOYxznqFw2u-2" value="" style="shape=module;jettyWidth=8;jettyHeight=4;" vertex="1" parent="Uh_5a39o5ZOYxznqFw2u-1">
          <mxGeometry x="1" width="20" height="20" relative="1" as="geometry">
            <mxPoint x="-27" y="7" as="offset" />
          </mxGeometry>
        </mxCell>
        <mxCell id="Uh_5a39o5ZOYxznqFw2u-3" value="User Interface" style="rounded=0;whiteSpace=wrap;html=1;" vertex="1" parent="1">
          <mxGeometry x="1585" y="-35" width="170" height="90" as="geometry" />
        </mxCell>
        <mxCell id="Uh_5a39o5ZOYxznqFw2u-4" value="Infrastructure" style="rounded=0;whiteSpace=wrap;html=1;" vertex="1" parent="1">
          <mxGeometry x="2135" y="-35" width="170" height="90" as="geometry" />
        </mxCell>
        <mxCell id="Uh_5a39o5ZOYxznqFw2u-5" value="Application Core" style="rounded=0;whiteSpace=wrap;html=1;" vertex="1" parent="1">
          <mxGeometry x="1860" y="-35" width="170" height="90" as="geometry" />
        </mxCell>
        <mxCell id="Uh_5a39o5ZOYxznqFw2u-6" value="&amp;lt;&amp;lt;microservice&amp;gt;&amp;gt;" style="text;html=1;align=center;verticalAlign=middle;resizable=0;points=[];autosize=1;strokeColor=none;fillColor=none;" vertex="1" parent="1">
          <mxGeometry x="1865" y="-105" width="120" height="30" as="geometry" />
        </mxCell>
        <mxCell id="Uh_5a39o5ZOYxznqFw2u-7" value="" style="endArrow=classic;html=1;rounded=0;entryX=0;entryY=0;entryDx=0;entryDy=55;entryPerimeter=0;exitX=0;exitY=0;exitDx=150;exitDy=55;exitPerimeter=0;dashed=1;" edge="1" parent="1">
          <mxGeometry width="50" height="50" relative="1" as="geometry">
            <mxPoint x="1755" y="9.5" as="sourcePoint" />
            <mxPoint x="1860" y="9.5" as="targetPoint" />
          </mxGeometry>
        </mxCell>
        <mxCell id="Uh_5a39o5ZOYxznqFw2u-8" value="" style="endArrow=classic;html=1;rounded=0;entryX=0;entryY=0;entryDx=0;entryDy=55;entryPerimeter=0;exitX=0;exitY=0;exitDx=150;exitDy=55;exitPerimeter=0;dashed=1;" edge="1" parent="1">
          <mxGeometry width="50" height="50" relative="1" as="geometry">
            <mxPoint x="2030" y="9.5" as="sourcePoint" />
            <mxPoint x="2135" y="9.5" as="targetPoint" />
          </mxGeometry>
        </mxCell>
        <mxCell id="Uh_5a39o5ZOYxznqFw2u-9" value="" style="endArrow=none;html=1;rounded=0;entryX=0;entryY=0.5;entryDx=0;entryDy=0;" edge="1" parent="1" source="Uh_5a39o5ZOYxznqFw2u-11" target="Uh_5a39o5ZOYxznqFw2u-3">
          <mxGeometry width="50" height="50" relative="1" as="geometry">
            <mxPoint x="1415" y="10" as="sourcePoint" />
            <mxPoint x="1855" y="-40" as="targetPoint" />
          </mxGeometry>
        </mxCell>
        <mxCell id="Uh_5a39o5ZOYxznqFw2u-10" value="" style="endArrow=none;html=1;rounded=0;entryX=0;entryY=0.5;entryDx=0;entryDy=0;" edge="1" parent="1" target="Uh_5a39o5ZOYxznqFw2u-11">
          <mxGeometry width="50" height="50" relative="1" as="geometry">
            <mxPoint x="1415" y="10" as="sourcePoint" />
            <mxPoint x="1585" y="10" as="targetPoint" />
          </mxGeometry>
        </mxCell>
        <mxCell id="Uh_5a39o5ZOYxznqFw2u-11" value="" style="ellipse;whiteSpace=wrap;html=1;aspect=fixed;" vertex="1" parent="1">
          <mxGeometry x="1395" y="-15" width="50" height="50" as="geometry" />
        </mxCell>
        <mxCell id="Uh_5a39o5ZOYxznqFw2u-12" value="API&lt;br&gt;(REST)" style="text;html=1;align=center;verticalAlign=middle;resizable=0;points=[];autosize=1;strokeColor=none;fillColor=none;" vertex="1" parent="1">
          <mxGeometry x="1390" y="-70" width="60" height="40" as="geometry" />
        </mxCell>
        <mxCell id="ycUEvMGuGsQoWCkcKYDy-4" style="edgeStyle=orthogonalEdgeStyle;rounded=0;orthogonalLoop=1;jettySize=auto;html=1;exitX=1;exitY=0.5;exitDx=0;exitDy=0;entryX=0.5;entryY=0;entryDx=0;entryDy=0;dashed=1;endArrow=classic;endFill=0;" edge="1" parent="1" source="k_lD97YK1YyMlD4LptIa-2" target="k_lD97YK1YyMlD4LptIa-5">
          <mxGeometry relative="1" as="geometry" />
        </mxCell>
        <mxCell id="k_lD97YK1YyMlD4LptIa-2" value="Action" style="rounded=0;whiteSpace=wrap;html=1;" vertex="1" parent="1">
          <mxGeometry x="347" y="-116.12" width="160" height="90" as="geometry" />
        </mxCell>
        <mxCell id="ycUEvMGuGsQoWCkcKYDy-2" style="edgeStyle=orthogonalEdgeStyle;rounded=0;orthogonalLoop=1;jettySize=auto;html=1;exitX=0.5;exitY=0;exitDx=0;exitDy=0;entryX=0;entryY=0.5;entryDx=0;entryDy=0;dashed=1;endArrow=classic;endFill=0;" edge="1" parent="1" source="k_lD97YK1YyMlD4LptIa-3" target="k_lD97YK1YyMlD4LptIa-2">
          <mxGeometry relative="1" as="geometry" />
        </mxCell>
        <mxCell id="k_lD97YK1YyMlD4LptIa-3" value="View" style="rounded=0;whiteSpace=wrap;html=1;" vertex="1" parent="1">
          <mxGeometry x="89" y="3.88" width="150" height="90" as="geometry" />
        </mxCell>
        <mxCell id="ycUEvMGuGsQoWCkcKYDy-8" style="edgeStyle=orthogonalEdgeStyle;rounded=0;orthogonalLoop=1;jettySize=auto;html=1;exitX=0;exitY=0.5;exitDx=0;exitDy=0;dashed=1;endArrow=classic;endFill=0;" edge="1" parent="1" source="k_lD97YK1YyMlD4LptIa-5" target="pQ4qvCU2GYWjAuvAuwTT-4">
          <mxGeometry relative="1" as="geometry" />
        </mxCell>
        <mxCell id="k_lD97YK1YyMlD4LptIa-5" value="Dispacher" style="rounded=0;whiteSpace=wrap;html=1;" vertex="1" parent="1">
          <mxGeometry x="597" y="3.88" width="150" height="90" as="geometry" />
        </mxCell>
        <mxCell id="ycUEvMGuGsQoWCkcKYDy-9" style="edgeStyle=orthogonalEdgeStyle;rounded=0;orthogonalLoop=1;jettySize=auto;html=1;exitX=0;exitY=0.5;exitDx=0;exitDy=0;entryX=1;entryY=0.5;entryDx=0;entryDy=0;dashed=1;endArrow=classic;endFill=0;" edge="1" parent="1" source="pQ4qvCU2GYWjAuvAuwTT-4" target="k_lD97YK1YyMlD4LptIa-3">
          <mxGeometry relative="1" as="geometry" />
        </mxCell>
        <mxCell id="ycUEvMGuGsQoWCkcKYDy-10" style="edgeStyle=orthogonalEdgeStyle;rounded=0;orthogonalLoop=1;jettySize=auto;html=1;exitX=0.5;exitY=1;exitDx=0;exitDy=0;entryX=0;entryY=0.5;entryDx=0;entryDy=0;dashed=1;dashPattern=8 8;" edge="1" parent="1">
          <mxGeometry relative="1" as="geometry">
            <mxPoint x="422.0000000000002" y="96.88000000000011" as="sourcePoint" />
            <mxPoint x="1419" y="34" as="targetPoint" />
            <Array as="points">
              <mxPoint x="422" y="117" />
              <mxPoint x="1419" y="117" />
            </Array>
          </mxGeometry>
        </mxCell>
        <mxCell id="pQ4qvCU2GYWjAuvAuwTT-4" value="Store" style="rounded=0;whiteSpace=wrap;html=1;" vertex="1" parent="1">
          <mxGeometry x="347" y="3.88" width="150" height="90" as="geometry" />
        </mxCell>
        <mxCell id="ycUEvMGuGsQoWCkcKYDy-7" style="edgeStyle=orthogonalEdgeStyle;rounded=0;orthogonalLoop=1;jettySize=auto;html=1;exitX=0;exitY=0.5;exitDx=0;exitDy=0;entryX=1;entryY=0.5;entryDx=0;entryDy=0;dashed=1;endArrow=classic;endFill=0;" edge="1" parent="1" source="pQ4qvCU2GYWjAuvAuwTT-5" target="k_lD97YK1YyMlD4LptIa-5">
          <mxGeometry relative="1" as="geometry" />
        </mxCell>
        <mxCell id="pQ4qvCU2GYWjAuvAuwTT-5" value="Action" style="rounded=0;whiteSpace=wrap;html=1;" vertex="1" parent="1">
          <mxGeometry x="810" y="3.88" width="150" height="90" as="geometry" />
        </mxCell>
      </root>
    </mxGraphModel>
  </diagram>
</mxfile>
